<?xml version="1.0" encoding="UTF-8"?>
<svg width="297px" height="48px" viewBox="0 0 297 48" version="1.1" xmlns="http://www.w3.org/2000/svg" xmlns:xlink="http://www.w3.org/1999/xlink">
    <title>NewRocket-Logo-RGB-White</title>
    <g id="Page" stroke="none" stroke-width="1" fill="none" fill-rule="evenodd">
        <g id="NewRocket-Logo-RGB-White" transform="translate(0.000000, 0.000000)" fill="#FFFFFE">
            <path d="M147.707,26.6261835 C143.507,23.4321835 140.42,34.0181835 131.09,47.8381835 C142.713,35.4131835 151.469,29.4891835 147.707,26.6261835" id="Fill-1"></path>
            <polyline id="Fill-2" points="296.499 10.3581835 283.428 10.3581835 283.428 38.9831835 277.672 38.9831835 277.672 10.3581835 265.332 10.3581835 265.332 4.54618349 296.499 4.54618349 296.499 10.2121835"></polyline>
            <path d="M159.446,9.75018349 C160.514,9.88918349 161.265,10.8691835 161.122,11.9351835 C160.984,13.0031835 160.004,13.7551835 158.937,13.6161835 C157.874,13.4751835 157.123,12.4921835 157.263,11.4271835 C157.404,10.3611835 158.384,9.60818349 159.446,9.75018349 Z M156.894,21.5201835 C160.235,18.0541835 163.554,14.0721835 165.716,10.0061835 C165.162,9.77718349 162.803,8.73418349 160.833,6.71318349 C161.973,7.77918349 164.246,9.07318349 165.924,9.60918349 C167.542,6.46018349 168.444,3.27018349 168.111,0.25318349 C168.007,-0.0618165102 167.605,0.00618348976 167.605,0.00618348976 C167.605,0.00618348976 159.709,0.0591834898 149.904,17.0041835 C148.247,18.5001835 145.93,18.1561835 145.93,18.1561835 L141.834,23.5141835 C141.834,23.5141835 141.403,23.9371835 142.214,24.0141835 C143.845,22.7431835 146.172,23.1041835 146.172,23.1041835 C146.172,23.1041835 147.495,21.0321835 148.746,19.0731835 C148.043,20.3631835 147.333,21.7431835 146.618,23.2141835 C146.795,23.2491835 146.779,23.2561835 146.865,23.2861835 C146.872,23.2871835 146.719,23.5271835 146.409,24.0271835 C146.825,25.0631835 149.048,26.8891835 150.622,27.2681835 C150.719,27.1891835 151.042,26.8521835 151.243,26.6331835 C151.329,26.6971835 151.329,26.6971835 151.408,26.8121835 C152.61,25.7191835 153.911,24.5011835 155.239,23.1921835 C153.542,25.0451835 151.626,27.1331835 151.626,27.1331835 C151.626,27.1331835 152.58,29.4531835 151.782,31.3551835 C152.059,32.1191835 152.389,31.5241835 152.389,31.5241835 L156.375,26.3281835 C156.375,26.3281835 155.637,23.6471835 156.894,21.5201835 L156.894,21.5201835 Z" id="Fill-3"></path>
            <path d="M162.457,19.0881835 C162.667,19.9421835 162.801,20.8261835 162.801,21.7441835 C162.801,27.9211835 157.794,32.9271835 151.618,32.9271835 C145.441,32.9271835 140.435,27.9211835 140.435,21.7441835 C140.435,15.5681835 145.441,10.5611835 151.618,10.5611835 C153.273,10.5611835 154.84,10.9311835 156.253,11.5761835 C157.628,9.68918349 158.937,8.13218349 160.169,6.84218349 C157.649,5.39318349 154.734,4.55118349 151.618,4.55118349 C142.122,4.55118349 134.424,12.2491835 134.424,21.7441835 C134.424,31.2401835 142.122,38.9391835 151.618,38.9391835 C161.114,38.9391835 168.812,31.2401835 168.812,21.7441835 C168.812,18.7651835 168.04,15.9711835 166.706,13.5291835 C165.453,15.4401835 163.997,17.3071835 162.457,19.0881835" id="Fill-4"></path>
            <polyline id="Fill-5" points="28.915 38.9831835 5.831 18.7611835 5.831 38.9831835 -7.10542736e-15 38.9831835 -7.10542736e-15 4.54618349 23.084 24.7681835 23.084 4.54618349 28.915 4.54618349 28.915 38.9831835"></polyline>
            <polyline id="Fill-6" points="57.83 38.9831835 32.973 38.9831835 32.973 4.54618349 57.83 4.54618349 57.83 10.3581835 38.687 10.3581835 38.687 17.9311835 52.507 17.9311835 52.507 23.9371835 38.687 23.9371835 38.687 33.1221835 57.83 33.1221835 57.83 38.9831835"></polyline>
            <polyline id="Fill-7" points="104.201 4.54518349 91.33 38.9071835 82.067 18.4431835 72.893 38.9961835 59.843 4.54518349 66.256 4.54518349 73.027 22.7751835 82.067 4.54618349 90.84 22.7751835 97.966 4.54518349 104.201 4.54518349"></polyline>
            <path d="M126.22,16.4341835 C126.22,15.3911835 125.972,14.4231835 125.474,13.5271835 C124.976,12.6321835 124.166,11.9081835 123.043,11.3541835 C122.786,11.2241835 122.489,11.1181835 122.152,11.0361835 C121.816,10.9551835 121.566,10.9141835 121.406,10.9141835 L112.211,10.9141835 L112.211,21.9041835 L121.406,21.9041835 C122.112,21.9041835 122.754,21.7341835 123.331,21.3911835 C123.91,21.0501835 124.414,20.6021835 124.848,20.0481835 C125.281,19.4951835 125.618,18.9001835 125.859,18.2661835 C126.099,17.6311835 126.22,17.0211835 126.22,16.4341835 Z M133.923,38.9831835 L127.424,38.9831835 L120.587,27.2581835 L112.211,27.2581835 L112.211,38.9831835 L106.529,38.9831835 L106.529,4.54618349 L121.646,4.54618349 C121.71,4.54618349 121.863,4.56418349 122.104,4.59418349 C122.345,4.62618349 122.61,4.67618349 122.899,4.74118349 C123.187,4.80618349 123.476,4.88018349 123.765,4.96018349 C124.054,5.04218349 124.278,5.11618349 124.439,5.18018349 C125.787,5.70218349 126.943,6.36218349 127.905,7.15918349 C128.868,7.95718349 129.646,8.82918349 130.24,9.77218349 C130.833,10.7171835 131.275,11.7191835 131.564,12.7751835 C131.853,13.8341835 131.997,14.8851835 131.997,15.9271835 C131.997,16.7411835 131.901,17.5951835 131.709,18.4901835 C131.516,19.3861835 131.195,20.2741835 130.746,21.1531835 C130.295,22.0341835 129.711,22.8711835 128.988,23.6691835 C128.267,24.4671835 127.375,25.1771835 126.317,25.7941835 L133.923,38.9831835 L133.923,38.9831835 Z" id="Fill-8"></path>
            <path d="M203.858,28.4951835 C202.985,30.3821835 201.932,31.9841835 200.703,33.3021835 C199.471,34.6191835 198.153,35.6991835 196.745,36.5441835 C195.336,37.3911835 193.879,38.0081835 192.374,38.3981835 C190.869,38.7891835 189.419,38.9831835 188.028,38.9831835 C185.599,38.9831835 183.34,38.5281835 181.253,37.6181835 C179.165,36.7081835 177.352,35.4641835 175.814,33.8861835 C174.276,32.3101835 173.07,30.4801835 172.196,28.3971835 C171.321,26.3191835 170.885,24.1061835 170.885,21.7651835 C170.885,19.4221835 171.321,17.2041835 172.196,15.1061835 C173.07,13.0071835 174.276,11.1791835 175.814,9.61818349 C177.352,8.05718349 179.165,6.82218349 181.253,5.91118349 C183.34,5.00018349 185.599,4.54618349 188.028,4.54618349 C189.291,4.54618349 190.609,4.70918349 191.986,5.03418349 C193.361,5.35918349 194.72,5.87118349 196.064,6.56918349 C197.407,7.27018349 198.679,8.18718349 199.876,9.32518349 C201.075,10.4651835 202.126,11.8621835 203.033,13.5211835 C202.321,14.0741835 201.576,14.6021835 200.8,15.1061835 C200.022,15.6111835 199.196,16.1721835 198.323,16.7891835 C196.995,14.6431835 195.449,13.0421835 193.684,11.9851835 C191.92,10.9281835 190.035,10.3991835 188.028,10.3991835 C186.44,10.3991835 184.96,10.7081835 183.583,11.3251835 C182.208,11.9441835 181.01,12.7731835 179.99,13.8141835 C178.97,14.8551835 178.168,16.0651835 177.587,17.4471835 C177.003,18.8301835 176.712,20.2691835 176.712,21.7651835 C176.712,23.3571835 177.019,24.8451835 177.635,26.2281835 C178.25,27.6101835 179.083,28.8141835 180.135,29.8381835 C181.188,30.8621835 182.394,31.6681835 183.753,32.2531835 C185.114,32.8381835 186.538,33.1301835 188.028,33.1301835 C188.902,33.1301835 189.849,32.9921835 190.869,32.7151835 C191.888,32.4401835 192.884,32.0081835 193.856,31.4231835 C194.827,30.8371835 195.716,30.0901835 196.526,29.1791835 C197.334,28.2681835 197.983,27.1961835 198.468,25.9601835 L203.858,28.4951835" id="Fill-9"></path>
            <polyline id="Fill-10" points="262.084 38.9831835 237.227 38.9831835 237.227 4.54618349 262.084 4.54618349 262.084 10.3581835 242.941 10.3581835 242.941 17.9311835 256.761 17.9311835 256.761 23.9371835 242.941 23.9371835 242.941 33.1221835 262.084 33.1221835 262.084 38.9831835"></polyline>
            <polyline id="Fill-11" points="205.957 38.9961835 205.957 4.58118349 211.988 4.58118349 211.988 20.9391835 226.454 4.53218349 233.833 4.53218349 220.629 19.8231835 234.657 38.9961835 227.134 38.9961835 216.406 24.0951835 211.988 28.7061835 211.988 38.9961835 205.957 38.9961835"></polyline>
        </g>
    </g>
</svg>